<?xml version="1.0" encoding="utf-8"?>
<!-- Generator: Adobe Illustrator 19.0.0, SVG Export Plug-In . SVG Version: 6.00 Build 0)  -->
<svg version="1.1" xmlns="http://www.w3.org/2000/svg" xmlns:xlink="http://www.w3.org/1999/xlink" x="0px" y="0px"
	 viewBox="0 0 675.1 499.4" style="enable-background:new 0 0 675.1 499.4;" xml:space="preserve">
<style type="text/css">
	.st0{fill:#0C0D0D;}
	.st1{fill:#FFFFFF;}
	.st2{fill:#7194BF;}
	.st3{fill:#0C0D0D;}
	.st4{fill:#151f29;}
	.st5{fill:#131b24;}
	.st6{fill:#1C2834;}
	.st7{fill:#131b24;}
	.st8{fill:#495d69;}
	.st9{fill:#C0CE30;}
	.st10{opacity:0.11;}
	.st11{fill:#5D5E5E;}
</style>
<g id="Layer_1">
	<g id="XMLID_53_">
		<g id="XMLID_66_">
			<path id="XMLID_51_" class="st0" d="M16.5,498.9c-9.1,0-16.5-7.3-16.5-16.1L0.4,17.9C0.4,8.1,8.7,0,18.8,0l637.9,0.6
				c10.1,0,18.4,8.1,18.4,18.1l-0.4,464.7c0,8.9-7.4,16.1-16.5,16.1L16.5,498.9z"/>
		</g>
		<rect id="XMLID_41_" x="31.1" y="38.2" class="st0" width="613" height="424.4"/>
	</g>
	<g id="XMLID_43_">
		<g id="XMLID_155_">
			<rect id="XMLID_156_" x="111.7" y="76" class="st1" width="83.7" height="9.3"/>
		</g>
		<g id="XMLID_153_">
			<rect id="XMLID_154_" x="111.7" y="96.8" class="st1" width="53.4" height="9.3"/>
		</g>
		<g id="XMLID_151_">
			<rect id="XMLID_152_" x="194.9" y="96.8" class="st1" width="214.6" height="9.3"/>
		</g>
		<g id="XMLID_59_">
			<g id="XMLID_95_">
				<rect id="XMLID_96_" x="50" y="76" class="st2" width="9.3" height="9.3"/>
			</g>
			<g id="XMLID_93_">
				<rect id="XMLID_94_" x="50" y="96.8" class="st2" width="9.3" height="9.3"/>
			</g>
			<g id="XMLID_91_">
				<rect id="XMLID_92_" x="50" y="117.6" class="st2" width="9.3" height="9.3"/>
			</g>
			<g id="XMLID_89_">
				<rect id="XMLID_90_" x="50" y="138.4" class="st2" width="9.3" height="9.3"/>
			</g>
			<g id="XMLID_87_">
				<rect id="XMLID_88_" x="50" y="159.2" class="st2" width="9.3" height="9.3"/>
			</g>
			<g id="XMLID_85_">
				<rect id="XMLID_86_" x="50" y="180" class="st2" width="9.3" height="9.3"/>
			</g>
			<g id="XMLID_83_">
				<rect id="XMLID_84_" x="50" y="200.8" class="st2" width="9.3" height="9.3"/>
			</g>
			<g id="XMLID_81_">
				<rect id="XMLID_82_" x="50" y="221.6" class="st2" width="9.3" height="9.3"/>
			</g>
			<g id="XMLID_79_">
				<rect id="XMLID_80_" x="50" y="242.4" class="st2" width="9.3" height="9.3"/>
			</g>
			<g id="XMLID_77_">
				<rect id="XMLID_78_" x="50" y="263.3" class="st2" width="9.3" height="9.3"/>
			</g>
			<g id="XMLID_75_">
				<rect id="XMLID_76_" x="50" y="284.1" class="st2" width="9.3" height="9.3"/>
			</g>
			<g id="XMLID_73_">
				<rect id="XMLID_74_" x="50" y="304.9" class="st2" width="9.3" height="9.3"/>
			</g>
			<g id="XMLID_71_">
				<rect id="XMLID_72_" x="50" y="325.7" class="st2" width="9.3" height="9.3"/>
			</g>
			<g id="XMLID_69_">
				<rect id="XMLID_70_" x="50" y="346.5" class="st2" width="9.3" height="9.3"/>
			</g>
			<g id="XMLID_67_">
				<rect id="XMLID_68_" x="50" y="367.3" class="st2" width="9.3" height="9.3"/>
			</g>
			<g id="XMLID_64_">
				<rect id="XMLID_65_" x="50" y="388.1" class="st2" width="9.3" height="9.3"/>
			</g>
			<g id="XMLID_62_">
				<rect id="XMLID_63_" x="50" y="408.9" class="st2" width="9.3" height="9.3"/>
			</g>
			<g id="XMLID_60_">
				<rect id="XMLID_61_" x="50" y="429.7" class="st2" width="9.3" height="9.3"/>
			</g>
		</g>
	</g>
	<rect id="XMLID_42_" x="22.5" y="24.8" class="st3" width="627" height="450"/>
	<path id="XMLID_47_" class="st4" d="M149.7,53.6h17l5.7-18.5c0,0,0.2-0.6,0.8-1c0.7-0.4,1.3-0.4,1.3-0.4l98.1,0c0,0,0.9,0,1.3,0.4
		c0.5,0.4,0.8,1.1,0.8,1.1l5,18.3h369.8v421.1H149.7V53.6z"/>
	<rect id="XMLID_44_" x="22.5" y="24.8" class="st5" width="127.2" height="450"/>
	<polygon id="XMLID_45_" class="st6" points="646.2,474.8 153.7,474.8 153.7,57.9 645.4,57.9 	"/>
	<rect id="XMLID_46_" x="153.7" y="57.9" class="st7" width="27.2" height="416.8"/>
	<g id="XMLID_49_">
		<g id="XMLID_127_">
			<rect id="XMLID_128_" x="163.6" y="69.4" class="st0" width="6.2" height="6.2"/>
		</g>
		<g id="XMLID_125_">
			<rect id="XMLID_126_" x="163.6" y="83.3" class="st0" width="6.2" height="6.2"/>
		</g>
		<g id="XMLID_123_">
			<rect id="XMLID_124_" x="163.6" y="97.2" class="st0" width="6.2" height="6.2"/>
		</g>
		<g id="XMLID_121_">
			<rect id="XMLID_122_" x="163.6" y="111" class="st0" width="6.2" height="6.2"/>
		</g>
		<g id="XMLID_119_">
			<rect id="XMLID_120_" x="163.6" y="124.9" class="st0" width="6.2" height="6.2"/>
		</g>
		<g id="XMLID_117_">
			<rect id="XMLID_118_" x="163.6" y="138.8" class="st0" width="6.2" height="6.2"/>
		</g>
		<g id="XMLID_115_">
			<rect id="XMLID_116_" x="163.6" y="152.7" class="st0" width="6.2" height="6.2"/>
		</g>
		<g id="XMLID_113_">
			<rect id="XMLID_114_" x="163.6" y="166.6" class="st0" width="6.2" height="6.2"/>
		</g>
		<g id="XMLID_111_">
			<rect id="XMLID_112_" x="163.6" y="180.5" class="st0" width="6.2" height="6.2"/>
		</g>
		<g id="XMLID_109_">
			<rect id="XMLID_110_" x="163.6" y="194.3" class="st0" width="6.2" height="6.2"/>
		</g>
		<g id="XMLID_107_">
			<rect id="XMLID_108_" x="163.6" y="208.2" class="st0" width="6.2" height="6.2"/>
		</g>
		<g id="XMLID_105_">
			<rect id="XMLID_106_" x="163.6" y="222.1" class="st0" width="6.2" height="6.2"/>
		</g>
		<g id="XMLID_103_">
			<rect id="XMLID_104_" x="163.6" y="236" class="st0" width="6.2" height="6.2"/>
		</g>
		<g id="XMLID_101_">
			<rect id="XMLID_102_" x="163.6" y="249.9" class="st0" width="6.2" height="6.2"/>
		</g>
		<g id="XMLID_99_">
			<rect id="XMLID_100_" x="163.6" y="263.7" class="st0" width="6.2" height="6.2"/>
		</g>
		<g id="XMLID_97_">
			<rect id="XMLID_98_" x="163.6" y="277.6" class="st0" width="6.2" height="6.2"/>
		</g>
		<g id="XMLID_56_">
			<rect id="XMLID_58_" x="163.6" y="291.5" class="st0" width="6.2" height="6.2"/>
		</g>
		<g id="XMLID_50_">
			<rect id="XMLID_52_" x="163.6" y="305.4" class="st0" width="6.2" height="6.2"/>
		</g>
	</g>
	<g id="XMLID_8_">
		<g id="XMLID_147_">
			<rect id="XMLID_148_" x="163.6" y="319" class="st0" width="6.2" height="6.2"/>
		</g>
		<g id="XMLID_145_">
			<rect id="XMLID_146_" x="163.6" y="332.9" class="st0" width="6.2" height="6.2"/>
		</g>
		<g id="XMLID_143_">
			<rect id="XMLID_144_" x="163.6" y="346.8" class="st0" width="6.2" height="6.2"/>
		</g>
		<g id="XMLID_141_">
			<rect id="XMLID_142_" x="163.6" y="360.7" class="st0" width="6.2" height="6.2"/>
		</g>
		<g id="XMLID_139_">
			<rect id="XMLID_140_" x="163.6" y="374.6" class="st0" width="6.2" height="6.2"/>
		</g>
		<g id="XMLID_137_">
			<rect id="XMLID_138_" x="163.6" y="388.4" class="st0" width="6.2" height="6.2"/>
		</g>
		<g id="XMLID_135_">
			<rect id="XMLID_136_" x="163.6" y="402.3" class="st0" width="6.2" height="6.2"/>
		</g>
		<g id="XMLID_133_">
			<rect id="XMLID_134_" x="163.6" y="416.2" class="st0" width="6.2" height="6.2"/>
		</g>
		<g id="XMLID_130_">
			<rect id="XMLID_132_" x="163.6" y="430.1" class="st0" width="6.2" height="6.2"/>
		</g>
		<g id="XMLID_25_">
			<rect id="XMLID_26_" x="163.6" y="444" class="st0" width="6.2" height="6.2"/>
		</g>
		<g id="XMLID_23_">
			<rect id="XMLID_24_" x="163.6" y="457.8" class="st0" width="6.2" height="6.2"/>
		</g>
	</g>
	<g id="XMLID_171_">
		<rect id="XMLID_172_" x="32.7" y="65.1" class="st8" width="81.5" height="6.2"/>
	</g>
	<g id="XMLID_169_">
		<rect id="XMLID_170_" x="32.7" y="78.9" class="st8" width="88" height="6.2"/>
	</g>
	<g id="XMLID_167_">
		<rect id="XMLID_168_" x="32.7" y="92.8" class="st8" width="98" height="6.2"/>
	</g>
	<g id="XMLID_165_">
		<rect id="XMLID_166_" x="32.7" y="106.7" class="st8" width="74" height="6.2"/>
	</g>
	<g id="XMLID_163_">
		<rect id="XMLID_164_" x="32.7" y="120.6" class="st8" width="88" height="6.2"/>
	</g>
	<g id="XMLID_1_">
		<rect id="XMLID_2_" x="177.8" y="41.2" class="st8" width="52.9" height="5.4"/>
	</g>
	<g id="XMLID_131_">
		<polyline id="XMLID_173_" class="st8" points="32.7,140.2 32.7,134 137.2,134 137.2,140.2 		"/>
	</g>
	<circle id="XMLID_129_" class="st9" cx="266.7" cy="43.8" r="2.6"/>
	<g id="XMLID_54_" class="st10">
		<path id="XMLID_40_" class="st11" d="M345.4,1.9l288.7,0.2c36.2-2.5,40.9,3.5,40.9,27.9l-0.7,442c0,17.1,3.6,30.3-40,26.9l-89-0.1
			L345.4,1.9z"/>
	</g>
</g>
<g id="cursor">
	<rect id="XMLID_9_" x="188.8" y="69.2" class="st9" width="1.7" height="13.7">
		<animate attributeName="opacity"
             values="0;0;1;1;0;0" dur="1s"
             repeatCount="indefinite"/>
	</rect>
</g>
</svg>
